<?xml version="1.0" encoding="UTF-8" standalone="no" ?>
<!DOCTYPE svg PUBLIC "-//W3C//DTD SVG 1.1//EN" "http://www.w3.org/Graphics/SVG/1.1/DTD/svg11.dtd">
<svg xmlns="http://www.w3.org/2000/svg" xmlns:xlink="http://www.w3.org/1999/xlink" version="1.1" width="640" height="480" viewBox="0 0 640 480" xml:space="preserve">
<desc>Created with Fabric.js 3.6.6</desc>
<defs>
</defs>
<g transform="matrix(6.53 0 0 6.24 352.62 336.96)"  >
<polygon style="stroke: rgb(75,107,251); stroke-width: 8; stroke-dasharray: none; stroke-linecap: butt; stroke-dashoffset: 0; stroke-linejoin: miter; stroke-miterlimit: 4; fill: rgb(75,107,251); fill-rule: nonzero; opacity: 1;"  points="-50,-50 -50,50 50,50 50,-50 " />
</g>
<g transform="matrix(15 0 0 15 321.5 240.5)"  >
<g style=""   >
		<g transform="matrix(1.33 0 0 1.33 -5.34 0)"  >
<line style="stroke: rgb(255,255,255); stroke-width: 2; stroke-dasharray: none; stroke-linecap: round; stroke-dashoffset: 0; stroke-linejoin: round; stroke-miterlimit: 4; fill: none; fill-rule: nonzero; opacity: 1;"  x1="-2" y1="0" x2="2" y2="0" />
</g>
		<g transform="matrix(1.33 0 0 1.33 -5.34 -0.01)"  >
<line style="stroke: rgb(255,255,255); stroke-width: 2; stroke-dasharray: none; stroke-linecap: round; stroke-dashoffset: 0; stroke-linejoin: round; stroke-miterlimit: 4; fill: none; fill-rule: nonzero; opacity: 1;"  x1="0" y1="-2" x2="0" y2="2" />
</g>
		<g transform="matrix(1.33 0 0 1.33 4.01 1.33)"  >
<line style="stroke: rgb(255,255,255); stroke-width: 2; stroke-dasharray: none; stroke-linecap: round; stroke-dashoffset: 0; stroke-linejoin: round; stroke-miterlimit: 4; fill: none; fill-rule: nonzero; opacity: 1;"  x1="-0.004999999999999893" y1="0" x2="0.004999999999999893" y2="0" />
</g>
		<g transform="matrix(1.33 0 0 1.33 8.01 -1.34)"  >
<line style="stroke: rgb(255,255,255); stroke-width: 2; stroke-dasharray: none; stroke-linecap: round; stroke-dashoffset: 0; stroke-linejoin: round; stroke-miterlimit: 4; fill: none; fill-rule: nonzero; opacity: 1;"  x1="-0.005000000000000782" y1="0" x2="0.005000000000000782" y2="0" />
</g>
		<g transform="matrix(1.33 0 0 1.33 -0.04 -0.02)"  >
<rect style="stroke: rgb(255,255,255); stroke-width: 2; stroke-dasharray: none; stroke-linecap: round; stroke-dashoffset: 0; stroke-linejoin: round; stroke-miterlimit: 4; fill: none; fill-rule: nonzero; opacity: 1;"  x="-10" y="-6" rx="2" ry="2" width="20" height="12" />
</g>
</g>
</g>
</svg>